<svg class="svg-icon" style="width: 1em; height: 1em;vertical-align: middle;fill: currentColor;overflow: hidden;" viewBox="0 0 1024 1024" version="1.1" xmlns="http://www.w3.org/2000/svg"><path d="M721.066667 844.8H341.333333c-44.088889 0-81.066667-36.977778-81.066666-81.066667V328.533333c0-44.088889 36.977778-81.066667 81.066666-81.066666h379.733334c44.088889 0 81.066667 36.977778 81.066666 81.066666v435.2c0 45.511111-35.555556 81.066667-81.066666 81.066667zM341.333333 304.355556c-12.8 0-24.177778 11.377778-24.177777 24.177777v435.2c0 12.8 11.377778 24.177778 24.177777 24.177778h379.733334c12.8 0 24.177778-11.377778 24.177777-24.177778V328.533333c0-12.8-11.377778-24.177778-24.177777-24.177777H341.333333z" fill="#3FA6AD" /><path d="M484.977778 445.155556h-110.933334c-15.644444 0-28.444444-12.8-28.444444-28.444445s12.8-28.444444 28.444444-28.444444h110.933334c15.644444 0 28.444444 12.8 28.444444 28.444444s-12.8 28.444444-28.444444 28.444445zM519.111111 580.266667H374.044444c-15.644444 0-28.444444-12.8-28.444444-28.444445s12.8-28.444444 28.444444-28.444444h145.066667c15.644444 0 28.444444 12.8 28.444445 28.444444s-12.8 28.444444-28.444445 28.444445zM632.888889 713.955556H374.044444c-15.644444 0-28.444444-12.8-28.444444-28.444445s12.8-28.444444 28.444444-28.444444h258.844445c15.644444 0 28.444444 12.8 28.444444 28.444444s-12.8 28.444444-28.444444 28.444445z" fill="#3FA6AD" /><path d="M622.933333 490.666667c-7.111111 0-14.222222-2.844444-19.911111-7.111111l-52.622222-48.355556c-11.377778-9.955556-12.8-28.444444-1.422222-39.822222 9.955556-11.377778 28.444444-12.8 39.822222-1.422222l32.711111 31.288888 54.044445-49.777777c11.377778-9.955556 29.866667-9.955556 39.822222 1.422222 9.955556 11.377778 9.955556 29.866667-1.422222 39.822222L640 484.977778c-4.266667 2.844444-11.377778 5.688889-17.066667 5.688889z" fill="#DC4569" /></svg>